<svg xmlns="http://www.w3.org/2000/svg" xmlns:xlink="http://www.w3.org/1999/xlink" width="1200" zoomAndPan="magnify" viewBox="0 0 900 165.000002" height="220" preserveAspectRatio="xMidYMid meet" version="1.0"><defs><g/><clipPath id="261e1f0b5c"><path d="M 2.710938 27.203125 L 110.410156 27.203125 L 110.410156 134.90625 L 2.710938 134.90625 Z M 2.710938 27.203125 " clip-rule="nonzero"/></clipPath><clipPath id="d1d5e9502e"><path d="M 0.710938 0.203125 L 108.410156 0.203125 L 108.410156 107.90625 L 0.710938 107.90625 Z M 0.710938 0.203125 " clip-rule="nonzero"/></clipPath><clipPath id="661849a5e2"><rect x="0" width="109" y="0" height="108"/></clipPath><clipPath id="10386d9414"><path d="M 12.234375 85.820312 L 56.5625 85.820312 L 56.5625 95.054688 L 12.234375 95.054688 Z M 12.234375 85.820312 " clip-rule="nonzero"/></clipPath><clipPath id="4aba509193"><path d="M 0.234375 0.820312 L 44.5625 0.820312 L 44.5625 10.054688 L 0.234375 10.054688 Z M 0.234375 0.820312 " clip-rule="nonzero"/></clipPath><clipPath id="2f14a133f9"><rect x="0" width="45" y="0" height="11"/></clipPath><clipPath id="719b2b9ff3"><path d="M 12.234375 101 L 56.5625 101 L 56.5625 110.234375 L 12.234375 110.234375 Z M 12.234375 101 " clip-rule="nonzero"/></clipPath><clipPath id="6f4aad1666"><path d="M 0.234375 0 L 44.5625 0 L 44.5625 9.234375 L 0.234375 9.234375 Z M 0.234375 0 " clip-rule="nonzero"/></clipPath><clipPath id="12218b325a"><rect x="0" width="45" y="0" height="10"/></clipPath><clipPath id="357591b061"><path d="M 12.234375 116.144531 L 56.5625 116.144531 L 56.5625 125.378906 L 12.234375 125.378906 Z M 12.234375 116.144531 " clip-rule="nonzero"/></clipPath><clipPath id="b769465faa"><path d="M 0.234375 0.144531 L 44.5625 0.144531 L 44.5625 9.378906 L 0.234375 9.378906 Z M 0.234375 0.144531 " clip-rule="nonzero"/></clipPath><clipPath id="37a2450d3a"><rect x="0" width="45" y="0" height="10"/></clipPath><clipPath id="cc946dd2b7"><path d="M 128 0 L 893 0 L 893 164.007812 L 128 164.007812 Z M 128 0 " clip-rule="nonzero"/></clipPath><clipPath id="c5639acfc9"><rect x="0" width="765" y="0" height="165"/></clipPath></defs><g clip-path="url(#261e1f0b5c)"><g transform="matrix(1, 0, 0, 1, 2, 27)"><g clip-path="url(#661849a5e2)"><g clip-path="url(#d1d5e9502e)"><path fill="#000000" d="M 0.710938 0.203125 L 108.410156 0.203125 L 108.410156 107.90625 L 0.710938 107.90625 Z M 0.710938 0.203125 " fill-opacity="1" fill-rule="nonzero"/></g></g></g></g><g clip-path="url(#10386d9414)"><g transform="matrix(1, 0, 0, 1, 12, 85)"><g clip-path="url(#2f14a133f9)"><g clip-path="url(#4aba509193)"><path fill="#ffffff" d="M 0.234375 0.820312 L 44.570312 0.820312 L 44.570312 10.054688 L 0.234375 10.054688 Z M 0.234375 0.820312 " fill-opacity="1" fill-rule="nonzero"/></g></g></g></g><g clip-path="url(#719b2b9ff3)"><g transform="matrix(1, 0, 0, 1, 12, 101)"><g clip-path="url(#12218b325a)"><g clip-path="url(#6f4aad1666)"><path fill="#ffffff" d="M 0.234375 0 L 44.570312 0 L 44.570312 9.234375 L 0.234375 9.234375 Z M 0.234375 0 " fill-opacity="1" fill-rule="nonzero"/></g></g></g></g><g clip-path="url(#357591b061)"><g transform="matrix(1, 0, 0, 1, 12, 116)"><g clip-path="url(#37a2450d3a)"><g clip-path="url(#b769465faa)"><path fill="#ffffff" d="M 0.234375 0.144531 L 44.570312 0.144531 L 44.570312 9.378906 L 0.234375 9.378906 Z M 0.234375 0.144531 " fill-opacity="1" fill-rule="nonzero"/></g></g></g></g><g clip-path="url(#cc946dd2b7)"><g transform="matrix(1, 0, 0, 1, 128, 0.000000000000012869)"><g clip-path="url(#c5639acfc9)"><g fill="#000000" fill-opacity="1"><g transform="translate(0.934888, 130.538678)"><g><path d="M 42.390625 1.40625 C 37.210938 1.40625 32.523438 0.675781 28.328125 -0.78125 C 24.140625 -2.238281 20.5625 -4.332031 17.59375 -7.0625 C 14.625 -9.789062 12.363281 -13.109375 10.8125 -17.015625 C 9.257812 -20.929688 8.484375 -25.335938 8.484375 -30.234375 L 8.484375 -101.75 L 29.671875 -101.75 L 29.671875 -30.375 C 29.671875 -26.039062 30.773438 -22.71875 32.984375 -20.40625 C 35.203125 -18.101562 38.335938 -16.953125 42.390625 -16.953125 C 46.347656 -16.953125 49.457031 -18.101562 51.71875 -20.40625 C 53.976562 -22.71875 55.109375 -26.039062 55.109375 -30.375 L 55.109375 -101.75 L 76.3125 -101.75 L 76.3125 -30.234375 C 76.3125 -25.335938 75.53125 -20.929688 73.96875 -17.015625 C 72.414062 -13.109375 70.15625 -9.789062 67.1875 -7.0625 C 64.226562 -4.332031 60.675781 -2.238281 56.53125 -0.78125 C 52.382812 0.675781 47.671875 1.40625 42.390625 1.40625 Z M 42.390625 1.40625 "/></g></g></g><g fill="#000000" fill-opacity="1"><g transform="translate(85.717825, 130.538678)"><g><path d="M 8.625 0 L 8.625 -77.71875 L 28.6875 -77.71875 L 28.6875 -64.296875 L 30.09375 -64.296875 C 30.757812 -69.003906 32.832031 -72.65625 36.3125 -75.25 C 39.800781 -77.84375 44.375 -79.140625 50.03125 -79.140625 C 57.9375 -79.140625 64.175781 -76.546875 68.75 -71.359375 C 73.320312 -66.179688 75.609375 -59.117188 75.609375 -50.171875 L 75.609375 0 L 54.40625 0 L 54.40625 -48.046875 C 54.40625 -52.003906 53.296875 -55.113281 51.078125 -57.375 C 48.867188 -59.632812 45.878906 -60.765625 42.109375 -60.765625 C 38.335938 -60.765625 35.34375 -59.632812 33.125 -57.375 C 30.914062 -55.113281 29.8125 -52.003906 29.8125 -48.046875 L 29.8125 0 Z M 8.625 0 "/></g></g></g><g fill="#000000" fill-opacity="1"><g transform="translate(170.500762, 130.538678)"><g><path d="M 10.59375 -19.21875 L 38.15625 -19.21875 L 38.15625 -58.640625 L 14.125 -58.640625 L 14.125 -77.71875 L 57.9375 -77.71875 L 57.9375 -19.21875 L 79.84375 -19.21875 L 79.84375 0 L 10.59375 0 Z M 33.921875 -98.21875 C 33.921875 -101.226562 34.882812 -103.628906 36.8125 -105.421875 C 38.738281 -107.210938 41.304688 -108.109375 44.515625 -108.109375 L 48.75 -108.109375 C 51.957031 -108.109375 54.523438 -107.210938 56.453125 -105.421875 C 58.378906 -103.628906 59.34375 -101.226562 59.34375 -98.21875 C 59.34375 -95.195312 58.378906 -92.789062 56.453125 -91 C 54.523438 -89.21875 51.910156 -88.328125 48.609375 -88.328125 L 44.515625 -88.328125 C 41.304688 -88.328125 38.738281 -89.21875 36.8125 -91 C 34.882812 -92.789062 33.921875 -95.195312 33.921875 -98.21875 Z M 33.921875 -98.21875 "/></g></g></g><g fill="#000000" fill-opacity="1"><g transform="translate(255.283699, 130.538678)"><g><path d="M 4.953125 -77.71875 L 25.4375 -77.71875 L 25.4375 -101.75 L 46.640625 -101.75 L 46.640625 -77.71875 L 75.609375 -77.71875 L 75.609375 -58.640625 L 46.640625 -58.640625 L 46.640625 -26.84375 C 46.640625 -24.394531 47.320312 -22.488281 48.6875 -21.125 C 50.050781 -19.757812 51.957031 -19.078125 54.40625 -19.078125 L 74.1875 -19.078125 L 74.1875 0 L 52.28125 0 C 43.894531 0 37.320312 -2.375 32.5625 -7.125 C 27.8125 -11.882812 25.4375 -18.457031 25.4375 -26.84375 L 25.4375 -58.640625 L 4.953125 -58.640625 Z M 4.953125 -77.71875 "/></g></g></g><g fill="#000000" fill-opacity="1"><g transform="translate(340.066635, 130.538678)"><g><path d="M 5.65625 0 L 5.65625 -101.75 L 30.234375 -101.75 L 40.5625 -70.9375 C 40.9375 -69.90625 41.21875 -68.820312 41.40625 -67.6875 C 41.59375 -66.5625 41.78125 -65.523438 41.96875 -64.578125 C 42.0625 -63.546875 42.15625 -62.507812 42.25 -61.46875 L 43.390625 -61.46875 C 43.484375 -62.507812 43.625 -63.546875 43.8125 -64.578125 C 44 -65.523438 44.1875 -66.5625 44.375 -67.6875 C 44.5625 -68.820312 44.796875 -69.90625 45.078125 -70.9375 L 54.265625 -101.75 L 79.140625 -101.75 L 79.140625 0 L 60.625 0 L 60.625 -62.171875 C 60.625 -64.816406 60.738281 -67.457031 60.96875 -70.09375 C 61.207031 -72.726562 61.46875 -75.128906 61.75 -77.296875 C 62.03125 -79.929688 62.363281 -82.425781 62.75 -84.78125 L 61.046875 -84.78125 C 60.578125 -82.519531 60.15625 -80.304688 59.78125 -78.140625 C 59.300781 -76.253906 58.875 -74.300781 58.5 -72.28125 C 58.125 -70.257812 57.703125 -68.539062 57.234375 -67.125 L 50.875 -44.515625 L 34.203125 -44.515625 L 27.125 -67.125 C 26.65625 -68.539062 26.234375 -70.234375 25.859375 -72.203125 C 25.484375 -74.179688 25.15625 -76.113281 24.875 -78 C 24.5 -80.164062 24.117188 -82.425781 23.734375 -84.78125 L 21.90625 -84.78125 C 22.28125 -82.425781 22.65625 -79.929688 23.03125 -77.296875 C 23.3125 -75.128906 23.570312 -72.726562 23.8125 -70.09375 C 24.050781 -67.457031 24.171875 -64.816406 24.171875 -62.171875 L 24.171875 0 Z M 5.65625 0 "/></g></g></g><g fill="#000000" fill-opacity="1"><g transform="translate(424.849572, 130.538678)"><g><path d="M 42.390625 1.40625 C 37.023438 1.40625 32.148438 0.65625 27.765625 -0.84375 C 23.390625 -2.351562 19.644531 -4.445312 16.53125 -7.125 C 13.425781 -9.8125 11.023438 -13.085938 9.328125 -16.953125 C 7.628906 -20.816406 6.78125 -25.054688 6.78125 -29.671875 L 6.78125 -48.1875 C 6.78125 -52.894531 7.628906 -57.132812 9.328125 -60.90625 C 11.023438 -64.675781 13.425781 -67.925781 16.53125 -70.65625 C 19.644531 -73.382812 23.390625 -75.476562 27.765625 -76.9375 C 32.148438 -78.40625 37.023438 -79.140625 42.390625 -79.140625 C 47.671875 -79.140625 52.476562 -78.382812 56.8125 -76.875 C 61.144531 -75.363281 64.863281 -73.242188 67.96875 -70.515625 C 71.082031 -67.785156 73.484375 -64.507812 75.171875 -60.6875 C 76.867188 -56.875 77.71875 -52.660156 77.71875 -48.046875 L 77.71875 -33.921875 L 27.703125 -33.921875 L 27.703125 -29.671875 C 27.703125 -24.960938 28.972656 -21.3125 31.515625 -18.71875 C 34.054688 -16.132812 37.679688 -14.84375 42.390625 -14.84375 C 45.878906 -14.84375 48.847656 -15.40625 51.296875 -16.53125 C 53.742188 -17.664062 55.394531 -19.222656 56.25 -21.203125 L 77.015625 -21.203125 C 76.171875 -17.804688 74.6875 -14.71875 72.5625 -11.9375 C 70.445312 -9.15625 67.878906 -6.773438 64.859375 -4.796875 C 61.847656 -2.828125 58.429688 -1.300781 54.609375 -0.21875 C 50.796875 0.863281 46.722656 1.40625 42.390625 1.40625 Z M 57.234375 -46.640625 L 57.234375 -48.046875 C 57.234375 -52.753906 55.9375 -56.40625 53.34375 -59 C 50.75 -61.59375 47.097656 -62.890625 42.390625 -62.890625 C 37.773438 -62.890625 34.171875 -61.59375 31.578125 -59 C 28.992188 -56.40625 27.703125 -52.800781 27.703125 -48.1875 L 27.703125 -46.640625 Z M 57.234375 -46.640625 "/></g></g></g><g fill="#000000" fill-opacity="1"><g transform="translate(509.632509, 130.538678)"><g><path d="M 4.953125 -77.71875 L 25.4375 -77.71875 L 25.4375 -101.75 L 46.640625 -101.75 L 46.640625 -77.71875 L 75.609375 -77.71875 L 75.609375 -58.640625 L 46.640625 -58.640625 L 46.640625 -26.84375 C 46.640625 -24.394531 47.320312 -22.488281 48.6875 -21.125 C 50.050781 -19.757812 51.957031 -19.078125 54.40625 -19.078125 L 74.1875 -19.078125 L 74.1875 0 L 52.28125 0 C 43.894531 0 37.320312 -2.375 32.5625 -7.125 C 27.8125 -11.882812 25.4375 -18.457031 25.4375 -26.84375 L 25.4375 -58.640625 L 4.953125 -58.640625 Z M 4.953125 -77.71875 "/></g></g></g><g fill="#000000" fill-opacity="1"><g transform="translate(594.415446, 130.538678)"><g><path d="M 6.078125 -21.203125 C 6.078125 -29.109375 8.945312 -35.347656 14.6875 -39.921875 C 20.4375 -44.492188 28.257812 -46.78125 38.15625 -46.78125 L 54.96875 -46.78125 L 54.96875 -53.703125 C 54.96875 -56.429688 53.8125 -58.644531 51.5 -60.34375 C 49.195312 -62.039062 46.066406 -62.890625 42.109375 -62.890625 C 38.617188 -62.890625 35.71875 -62.25 33.40625 -60.96875 C 31.101562 -59.695312 29.625 -57.976562 28.96875 -55.8125 L 8.484375 -55.8125 C 9.046875 -59.394531 10.242188 -62.625 12.078125 -65.5 C 13.921875 -68.375 16.300781 -70.820312 19.21875 -72.84375 C 22.132812 -74.875 25.523438 -76.429688 29.390625 -77.515625 C 33.253906 -78.597656 37.492188 -79.140625 42.109375 -79.140625 C 47.191406 -79.140625 51.828125 -78.523438 56.015625 -77.296875 C 60.210938 -76.066406 63.796875 -74.34375 66.765625 -72.125 C 69.734375 -69.914062 72.039062 -67.257812 73.6875 -64.15625 C 75.34375 -61.050781 76.171875 -57.566406 76.171875 -53.703125 L 76.171875 0 L 55.953125 0 L 55.953125 -15.546875 L 54.6875 -15.546875 C 54.03125 -10.265625 51.554688 -6.117188 47.265625 -3.109375 C 42.984375 -0.0976562 37.546875 1.40625 30.953125 1.40625 C 23.316406 1.40625 17.257812 -0.613281 12.78125 -4.65625 C 8.3125 -8.707031 6.078125 -14.222656 6.078125 -21.203125 Z M 39.5625 -14.84375 C 44.082031 -14.84375 47.78125 -15.898438 50.65625 -18.015625 C 53.53125 -20.140625 54.96875 -22.847656 54.96875 -26.140625 L 54.96875 -34.0625 L 38.15625 -34.0625 C 34.851562 -34.0625 32.210938 -33.234375 30.234375 -31.578125 C 28.253906 -29.929688 27.265625 -27.601562 27.265625 -24.59375 C 27.265625 -21.570312 28.320312 -19.191406 30.4375 -17.453125 C 32.5625 -15.710938 35.601562 -14.84375 39.5625 -14.84375 Z M 39.5625 -14.84375 "/></g></g></g><g fill="#000000" fill-opacity="1"><g transform="translate(679.198383, 130.538678)"><g><path d="M 48.75 -103.15625 L 48.75 -26.84375 C 48.75 -24.394531 49.429688 -22.488281 50.796875 -21.125 C 52.160156 -19.757812 54.070312 -19.078125 56.53125 -19.078125 L 79.84375 -19.078125 L 79.84375 0 L 54.40625 0 C 46.019531 0 39.445312 -2.375 34.6875 -7.125 C 29.9375 -11.882812 27.5625 -18.457031 27.5625 -26.84375 L 27.5625 -84.078125 L 3.53125 -84.078125 L 3.53125 -103.15625 Z M 48.75 -103.15625 "/></g></g></g></g></g></g></svg>