<svg xmlns="http://www.w3.org/2000/svg" xmlns:xlink="http://www.w3.org/1999/xlink" width="500" zoomAndPan="magnify" viewBox="0 0 375 374.999991" height="500" preserveAspectRatio="xMidYMid meet" version="1.0"><defs><clipPath id="f0d60ec152"><path d="M 42.75 0 L 332.25 0 C 355.859375 0 375 19.140625 375 42.75 L 375 332.25 C 375 355.859375 355.859375 375 332.25 375 L 42.75 375 C 19.140625 375 0 355.859375 0 332.25 L 0 42.75 C 0 19.140625 19.140625 0 42.75 0 Z M 42.75 0 " clip-rule="nonzero"/></clipPath><clipPath id="9a0402c0b2"><path d="M 0 0 L 375 0 L 375 375 L 0 375 Z M 0 0 " clip-rule="nonzero"/></clipPath><clipPath id="f33e48b8c1"><path d="M 42.75 0 L 332.25 0 C 355.859375 0 375 19.140625 375 42.75 L 375 332.25 C 375 355.859375 355.859375 375 332.25 375 L 42.75 375 C 19.140625 375 0 355.859375 0 332.25 L 0 42.75 C 0 19.140625 19.140625 0 42.75 0 Z M 42.75 0 " clip-rule="nonzero"/></clipPath><clipPath id="8c6c84c1f5"><rect x="0" width="375" y="0" height="375"/></clipPath><clipPath id="c3232cbd0b"><path d="M 87.511719 87.511719 L 287.488281 87.511719 L 287.488281 287.488281 L 87.511719 287.488281 Z M 87.511719 87.511719 " clip-rule="nonzero"/></clipPath><clipPath id="d08e0591cb"><path d="M 0.511719 0.511719 L 200.488281 0.511719 L 200.488281 200.488281 L 0.511719 200.488281 Z M 0.511719 0.511719 " clip-rule="nonzero"/></clipPath><clipPath id="f7f029f730"><rect x="0" width="201" y="0" height="201"/></clipPath><clipPath id="a5c5c4a1cb"><path d="M 105.199219 196.347656 L 187.5 196.347656 L 187.5 213.492188 L 105.199219 213.492188 Z M 105.199219 196.347656 " clip-rule="nonzero"/></clipPath><clipPath id="5501f1d230"><path d="M 0.199219 0.347656 L 82.5 0.347656 L 82.5 17.492188 L 0.199219 17.492188 Z M 0.199219 0.347656 " clip-rule="nonzero"/></clipPath><clipPath id="80d9a3939e"><rect x="0" width="83" y="0" height="18"/></clipPath><clipPath id="274ea8a6d0"><path d="M 105.199219 224.535156 L 187.5 224.535156 L 187.5 241.683594 L 105.199219 241.683594 Z M 105.199219 224.535156 " clip-rule="nonzero"/></clipPath><clipPath id="0daec4ba01"><path d="M 0.199219 0.535156 L 82.5 0.535156 L 82.5 17.683594 L 0.199219 17.683594 Z M 0.199219 0.535156 " clip-rule="nonzero"/></clipPath><clipPath id="c65992e8b3"><rect x="0" width="83" y="0" height="18"/></clipPath><clipPath id="32ad224b90"><path d="M 105.199219 252.65625 L 187.5 252.65625 L 187.5 269.800781 L 105.199219 269.800781 Z M 105.199219 252.65625 " clip-rule="nonzero"/></clipPath><clipPath id="8ddf6e5539"><path d="M 0.199219 0.65625 L 82.5 0.65625 L 82.5 17.800781 L 0.199219 17.800781 Z M 0.199219 0.65625 " clip-rule="nonzero"/></clipPath><clipPath id="692d64a47e"><rect x="0" width="83" y="0" height="18"/></clipPath></defs><g clip-path="url(#f0d60ec152)"><g transform="matrix(1, 0, 0, 1, 0, 0)"><g clip-path="url(#8c6c84c1f5)"><g clip-path="url(#9a0402c0b2)"><g clip-path="url(#f33e48b8c1)"><rect x="-82.5" width="540" fill="#000000" height="539.999987" y="-82.499998" fill-opacity="1"/></g></g></g></g></g><g clip-path="url(#c3232cbd0b)"><g transform="matrix(1, 0, 0, 1, 87, 87)"><g clip-path="url(#f7f029f730)"><g clip-path="url(#d08e0591cb)"><path fill="#ffffff" d="M 0.511719 0.511719 L 200.488281 0.511719 L 200.488281 200.488281 L 0.511719 200.488281 Z M 0.511719 0.511719 " fill-opacity="1" fill-rule="nonzero"/></g></g></g></g><g clip-path="url(#a5c5c4a1cb)"><g transform="matrix(1, 0, 0, 1, 105, 196)"><g clip-path="url(#80d9a3939e)"><g clip-path="url(#5501f1d230)"><path fill="#000000" d="M 0.199219 0.347656 L 82.511719 0.347656 L 82.511719 17.492188 L 0.199219 17.492188 Z M 0.199219 0.347656 " fill-opacity="1" fill-rule="nonzero"/></g></g></g></g><g clip-path="url(#274ea8a6d0)"><g transform="matrix(1, 0, 0, 1, 105, 224)"><g clip-path="url(#c65992e8b3)"><g clip-path="url(#0daec4ba01)"><path fill="#000000" d="M 0.199219 0.535156 L 82.511719 0.535156 L 82.511719 17.683594 L 0.199219 17.683594 Z M 0.199219 0.535156 " fill-opacity="1" fill-rule="nonzero"/></g></g></g></g><g clip-path="url(#32ad224b90)"><g transform="matrix(1, 0, 0, 1, 105, 252)"><g clip-path="url(#692d64a47e)"><g clip-path="url(#8ddf6e5539)"><path fill="#000000" d="M 0.199219 0.65625 L 82.511719 0.65625 L 82.511719 17.800781 L 0.199219 17.800781 Z M 0.199219 0.65625 " fill-opacity="1" fill-rule="nonzero"/></g></g></g></g></svg>